<mxfile host="app.diagrams.net" modified="2023-12-28T10:00:48.018Z" agent="Mozilla/5.0 (Windows NT 10.0; Win64; x64) AppleWebKit/537.36 (KHTML, like Gecko) Chrome/120.0.0.0 Safari/537.36" etag="8e7niKo02b9OJbAQFyWD" version="22.1.15" type="device">
  <diagram name="Page-1" id="7qPbTP35k7GYOws3hgi-">
    <mxGraphModel dx="988" dy="605" grid="1" gridSize="10" guides="1" tooltips="1" connect="1" arrows="1" fold="1" page="1" pageScale="1" pageWidth="850" pageHeight="1100" background="#ffffff" math="0" shadow="0">
      <root>
        <mxCell id="0" />
        <mxCell id="1" parent="0" />
        <mxCell id="noOCyW1QZhKIkGpp8HjO-1" value="employer" style="shape=umlActor;verticalLabelPosition=bottom;verticalAlign=top;html=1;outlineConnect=0;fillColor=#f5f5f5;strokeColor=#666666;fontColor=#333333;" parent="1" vertex="1">
          <mxGeometry x="40" y="160" width="30" height="60" as="geometry" />
        </mxCell>
        <mxCell id="noOCyW1QZhKIkGpp8HjO-3" value="" style="endArrow=classic;html=1;rounded=0;fillColor=#0050ef;strokeColor=#001DBC;" parent="1" edge="1">
          <mxGeometry width="50" height="50" relative="1" as="geometry">
            <mxPoint x="80" y="160" as="sourcePoint" />
            <mxPoint x="180" y="110" as="targetPoint" />
          </mxGeometry>
        </mxCell>
        <mxCell id="noOCyW1QZhKIkGpp8HjO-4" value="sign up" style="ellipse;whiteSpace=wrap;html=1;fillColor=#ffe6cc;strokeColor=#d79b00;" parent="1" vertex="1">
          <mxGeometry x="190" y="50" width="120" height="80" as="geometry" />
        </mxCell>
        <mxCell id="noOCyW1QZhKIkGpp8HjO-7" value="" style="endArrow=classic;html=1;rounded=0;fillColor=#60a917;strokeColor=#2D7600;" parent="1" edge="1">
          <mxGeometry width="50" height="50" relative="1" as="geometry">
            <mxPoint x="80" y="225" as="sourcePoint" />
            <mxPoint x="180" y="295" as="targetPoint" />
          </mxGeometry>
        </mxCell>
        <mxCell id="noOCyW1QZhKIkGpp8HjO-8" value="sign in" style="ellipse;whiteSpace=wrap;html=1;fillColor=#ffe6cc;strokeColor=#d79b00;" parent="1" vertex="1">
          <mxGeometry x="190" y="280" width="120" height="80" as="geometry" />
        </mxCell>
        <mxCell id="NJKcCvW-NIQRYJZBvQvQ-4" value="profile" style="swimlane;whiteSpace=wrap;html=1;fillColor=#f8cecc;strokeColor=#b85450;" parent="1" vertex="1">
          <mxGeometry x="440" y="10" width="80" height="110" as="geometry">
            <mxRectangle x="420" y="10" width="80" height="30" as="alternateBounds" />
          </mxGeometry>
        </mxCell>
        <mxCell id="NJKcCvW-NIQRYJZBvQvQ-9" value="create" style="rounded=1;whiteSpace=wrap;html=1;fillColor=#fff2cc;strokeColor=#d6b656;" parent="NJKcCvW-NIQRYJZBvQvQ-4" vertex="1">
          <mxGeometry x="10" y="30" width="60" height="30" as="geometry" />
        </mxCell>
        <mxCell id="NJKcCvW-NIQRYJZBvQvQ-10" value="edit" style="rounded=1;whiteSpace=wrap;html=1;fillColor=#fff2cc;strokeColor=#d6b656;" parent="NJKcCvW-NIQRYJZBvQvQ-4" vertex="1">
          <mxGeometry x="10" y="70" width="60" height="30" as="geometry" />
        </mxCell>
        <mxCell id="NJKcCvW-NIQRYJZBvQvQ-12" value="job offer" style="swimlane;whiteSpace=wrap;html=1;fillColor=#f8cecc;strokeColor=#b85450;" parent="1" vertex="1">
          <mxGeometry x="440" y="145" width="80" height="150" as="geometry">
            <mxRectangle x="420" y="10" width="80" height="30" as="alternateBounds" />
          </mxGeometry>
        </mxCell>
        <mxCell id="NJKcCvW-NIQRYJZBvQvQ-13" value="create" style="rounded=1;whiteSpace=wrap;html=1;fillColor=#fff2cc;strokeColor=#d6b656;" parent="NJKcCvW-NIQRYJZBvQvQ-12" vertex="1">
          <mxGeometry x="10" y="30" width="60" height="30" as="geometry" />
        </mxCell>
        <mxCell id="NJKcCvW-NIQRYJZBvQvQ-14" value="edit" style="rounded=1;whiteSpace=wrap;html=1;fillColor=#fff2cc;strokeColor=#d6b656;" parent="NJKcCvW-NIQRYJZBvQvQ-12" vertex="1">
          <mxGeometry x="10" y="70" width="60" height="30" as="geometry" />
        </mxCell>
        <mxCell id="NJKcCvW-NIQRYJZBvQvQ-15" value="delete" style="rounded=1;whiteSpace=wrap;html=1;fillColor=#fff2cc;strokeColor=#d6b656;" parent="NJKcCvW-NIQRYJZBvQvQ-12" vertex="1">
          <mxGeometry x="10" y="110" width="60" height="30" as="geometry" />
        </mxCell>
        <mxCell id="NJKcCvW-NIQRYJZBvQvQ-16" value="resume" style="swimlane;whiteSpace=wrap;html=1;fillColor=#f8cecc;strokeColor=#b85450;" parent="1" vertex="1">
          <mxGeometry x="440" y="310" width="80" height="110" as="geometry">
            <mxRectangle x="420" y="10" width="80" height="30" as="alternateBounds" />
          </mxGeometry>
        </mxCell>
        <mxCell id="NJKcCvW-NIQRYJZBvQvQ-17" value="view" style="rounded=1;whiteSpace=wrap;html=1;fillColor=#fff2cc;strokeColor=#d6b656;" parent="NJKcCvW-NIQRYJZBvQvQ-16" vertex="1">
          <mxGeometry x="10" y="30" width="60" height="30" as="geometry" />
        </mxCell>
        <mxCell id="NJKcCvW-NIQRYJZBvQvQ-18" value="accept&lt;br&gt;reject" style="rounded=1;whiteSpace=wrap;html=1;fillColor=#fff2cc;strokeColor=#d6b656;" parent="NJKcCvW-NIQRYJZBvQvQ-16" vertex="1">
          <mxGeometry x="10" y="70" width="60" height="30" as="geometry" />
        </mxCell>
        <mxCell id="NJKcCvW-NIQRYJZBvQvQ-29" value="" style="endArrow=classic;html=1;rounded=0;fillColor=#0050ef;strokeColor=#001DBC;" parent="1" edge="1">
          <mxGeometry width="50" height="50" relative="1" as="geometry">
            <mxPoint x="300" y="70" as="sourcePoint" />
            <mxPoint x="430" y="40" as="targetPoint" />
          </mxGeometry>
        </mxCell>
        <mxCell id="NJKcCvW-NIQRYJZBvQvQ-30" value="" style="endArrow=classic;html=1;rounded=0;entryX=0;entryY=0.25;entryDx=0;entryDy=0;fillColor=#0050ef;strokeColor=#001DBC;" parent="1" target="NJKcCvW-NIQRYJZBvQvQ-12" edge="1">
          <mxGeometry width="50" height="50" relative="1" as="geometry">
            <mxPoint x="310" y="100" as="sourcePoint" />
            <mxPoint x="360" y="50" as="targetPoint" />
          </mxGeometry>
        </mxCell>
        <mxCell id="NJKcCvW-NIQRYJZBvQvQ-31" value="" style="endArrow=classic;html=1;rounded=0;fillColor=#60a917;strokeColor=#2D7600;" parent="1" edge="1">
          <mxGeometry width="50" height="50" relative="1" as="geometry">
            <mxPoint x="290" y="350" as="sourcePoint" />
            <mxPoint x="440" y="410" as="targetPoint" />
          </mxGeometry>
        </mxCell>
        <mxCell id="NJKcCvW-NIQRYJZBvQvQ-32" value="" style="endArrow=classic;html=1;rounded=0;fillColor=#60a917;strokeColor=#2D7600;" parent="1" edge="1">
          <mxGeometry width="50" height="50" relative="1" as="geometry">
            <mxPoint x="300" y="345" as="sourcePoint" />
            <mxPoint x="440" y="360" as="targetPoint" />
          </mxGeometry>
        </mxCell>
        <mxCell id="NJKcCvW-NIQRYJZBvQvQ-33" value="" style="endArrow=classic;html=1;rounded=0;fillColor=#60a917;strokeColor=#2D7600;" parent="1" edge="1">
          <mxGeometry width="50" height="50" relative="1" as="geometry">
            <mxPoint x="310" y="330" as="sourcePoint" />
            <mxPoint x="440" y="280" as="targetPoint" />
          </mxGeometry>
        </mxCell>
        <mxCell id="NJKcCvW-NIQRYJZBvQvQ-34" value="" style="endArrow=classic;html=1;rounded=0;fillColor=#60a917;strokeColor=#2D7600;" parent="1" edge="1">
          <mxGeometry width="50" height="50" relative="1" as="geometry">
            <mxPoint x="310" y="310" as="sourcePoint" />
            <mxPoint x="440" y="240" as="targetPoint" />
          </mxGeometry>
        </mxCell>
        <mxCell id="NJKcCvW-NIQRYJZBvQvQ-35" value="" style="endArrow=classic;html=1;rounded=0;fillColor=#60a917;strokeColor=#2D7600;" parent="1" edge="1">
          <mxGeometry width="50" height="50" relative="1" as="geometry">
            <mxPoint x="300" y="300" as="sourcePoint" />
            <mxPoint x="440" y="200" as="targetPoint" />
          </mxGeometry>
        </mxCell>
        <mxCell id="NJKcCvW-NIQRYJZBvQvQ-36" value="" style="endArrow=classic;html=1;rounded=0;fillColor=#60a917;strokeColor=#2D7600;" parent="1" edge="1">
          <mxGeometry width="50" height="50" relative="1" as="geometry">
            <mxPoint x="290" y="290" as="sourcePoint" />
            <mxPoint x="440" y="100" as="targetPoint" />
          </mxGeometry>
        </mxCell>
        <mxCell id="NJKcCvW-NIQRYJZBvQvQ-37" value="" style="endArrow=classic;html=1;rounded=0;entryX=0;entryY=0.5;entryDx=0;entryDy=0;exitX=0.77;exitY=0.062;exitDx=0;exitDy=0;exitPerimeter=0;fillColor=#60a917;strokeColor=#2D7600;" parent="1" source="noOCyW1QZhKIkGpp8HjO-8" target="NJKcCvW-NIQRYJZBvQvQ-4" edge="1">
          <mxGeometry width="50" height="50" relative="1" as="geometry">
            <mxPoint x="270" y="280" as="sourcePoint" />
            <mxPoint x="320" y="230" as="targetPoint" />
          </mxGeometry>
        </mxCell>
        <mxCell id="NJKcCvW-NIQRYJZBvQvQ-157" value="job seeker" style="shape=umlActor;verticalLabelPosition=bottom;verticalAlign=top;html=1;outlineConnect=0;fillColor=#f5f5f5;fontColor=#333333;strokeColor=#666666;" parent="1" vertex="1">
          <mxGeometry x="40" y="710" width="30" height="60" as="geometry" />
        </mxCell>
        <mxCell id="NJKcCvW-NIQRYJZBvQvQ-158" value="" style="endArrow=classic;html=1;rounded=0;fillColor=#0050ef;strokeColor=#001DBC;" parent="1" edge="1">
          <mxGeometry width="50" height="50" relative="1" as="geometry">
            <mxPoint x="90" y="710" as="sourcePoint" />
            <mxPoint x="190" y="660" as="targetPoint" />
          </mxGeometry>
        </mxCell>
        <mxCell id="NJKcCvW-NIQRYJZBvQvQ-159" value="sign up" style="ellipse;whiteSpace=wrap;html=1;fillColor=#ffe6cc;strokeColor=#d79b00;" parent="1" vertex="1">
          <mxGeometry x="200" y="600" width="120" height="80" as="geometry" />
        </mxCell>
        <mxCell id="NJKcCvW-NIQRYJZBvQvQ-160" value="" style="endArrow=classic;html=1;rounded=0;fillColor=#60a917;strokeColor=#2D7600;" parent="1" edge="1">
          <mxGeometry width="50" height="50" relative="1" as="geometry">
            <mxPoint x="90" y="775" as="sourcePoint" />
            <mxPoint x="190" y="845" as="targetPoint" />
          </mxGeometry>
        </mxCell>
        <mxCell id="NJKcCvW-NIQRYJZBvQvQ-161" value="sign in" style="ellipse;whiteSpace=wrap;html=1;fillColor=#ffe6cc;strokeColor=#d79b00;" parent="1" vertex="1">
          <mxGeometry x="200" y="830" width="120" height="80" as="geometry" />
        </mxCell>
        <mxCell id="NJKcCvW-NIQRYJZBvQvQ-162" value="profile" style="swimlane;whiteSpace=wrap;html=1;fillColor=#f8cecc;strokeColor=#b85450;" parent="1" vertex="1">
          <mxGeometry x="450" y="560" width="80" height="110" as="geometry">
            <mxRectangle x="420" y="10" width="80" height="30" as="alternateBounds" />
          </mxGeometry>
        </mxCell>
        <mxCell id="NJKcCvW-NIQRYJZBvQvQ-163" value="create" style="rounded=1;whiteSpace=wrap;html=1;fillColor=#fff2cc;strokeColor=#d6b656;" parent="NJKcCvW-NIQRYJZBvQvQ-162" vertex="1">
          <mxGeometry x="10" y="30" width="60" height="30" as="geometry" />
        </mxCell>
        <mxCell id="NJKcCvW-NIQRYJZBvQvQ-164" value="edit" style="rounded=1;whiteSpace=wrap;html=1;fillColor=#fff2cc;strokeColor=#d6b656;" parent="NJKcCvW-NIQRYJZBvQvQ-162" vertex="1">
          <mxGeometry x="10" y="70" width="60" height="30" as="geometry" />
        </mxCell>
        <mxCell id="NJKcCvW-NIQRYJZBvQvQ-165" value="resume" style="swimlane;whiteSpace=wrap;html=1;fillColor=#f8cecc;strokeColor=#b85450;" parent="1" vertex="1">
          <mxGeometry x="450" y="695" width="80" height="195" as="geometry">
            <mxRectangle x="420" y="10" width="80" height="30" as="alternateBounds" />
          </mxGeometry>
        </mxCell>
        <mxCell id="NJKcCvW-NIQRYJZBvQvQ-166" value="create" style="rounded=1;whiteSpace=wrap;html=1;fillColor=#fff2cc;strokeColor=#d6b656;" parent="NJKcCvW-NIQRYJZBvQvQ-165" vertex="1">
          <mxGeometry x="10" y="30" width="60" height="30" as="geometry" />
        </mxCell>
        <mxCell id="NJKcCvW-NIQRYJZBvQvQ-167" value="edit" style="rounded=1;whiteSpace=wrap;html=1;fillColor=#fff2cc;strokeColor=#d6b656;" parent="NJKcCvW-NIQRYJZBvQvQ-165" vertex="1">
          <mxGeometry x="10" y="70" width="60" height="30" as="geometry" />
        </mxCell>
        <mxCell id="NJKcCvW-NIQRYJZBvQvQ-168" value="delete" style="rounded=1;whiteSpace=wrap;html=1;fillColor=#fff2cc;strokeColor=#d6b656;" parent="NJKcCvW-NIQRYJZBvQvQ-165" vertex="1">
          <mxGeometry x="10" y="110" width="60" height="30" as="geometry" />
        </mxCell>
        <mxCell id="NJKcCvW-NIQRYJZBvQvQ-182" value="send" style="rounded=1;whiteSpace=wrap;html=1;fillColor=#fff2cc;strokeColor=#d6b656;" parent="NJKcCvW-NIQRYJZBvQvQ-165" vertex="1">
          <mxGeometry x="10" y="155" width="60" height="30" as="geometry" />
        </mxCell>
        <mxCell id="NJKcCvW-NIQRYJZBvQvQ-172" value="" style="endArrow=classic;html=1;rounded=0;fillColor=#0050ef;strokeColor=#001DBC;" parent="1" edge="1">
          <mxGeometry width="50" height="50" relative="1" as="geometry">
            <mxPoint x="310" y="620" as="sourcePoint" />
            <mxPoint x="440" y="590" as="targetPoint" />
          </mxGeometry>
        </mxCell>
        <mxCell id="NJKcCvW-NIQRYJZBvQvQ-173" value="" style="endArrow=classic;html=1;rounded=0;entryX=0;entryY=0.25;entryDx=0;entryDy=0;fillColor=#0050ef;strokeColor=#001DBC;" parent="1" target="NJKcCvW-NIQRYJZBvQvQ-165" edge="1">
          <mxGeometry width="50" height="50" relative="1" as="geometry">
            <mxPoint x="320" y="650" as="sourcePoint" />
            <mxPoint x="370" y="600" as="targetPoint" />
          </mxGeometry>
        </mxCell>
        <mxCell id="NJKcCvW-NIQRYJZBvQvQ-174" value="" style="endArrow=classic;html=1;rounded=0;fillColor=#60a917;strokeColor=#2D7600;" parent="1" edge="1">
          <mxGeometry width="50" height="50" relative="1" as="geometry">
            <mxPoint x="300" y="900" as="sourcePoint" />
            <mxPoint x="450" y="960" as="targetPoint" />
          </mxGeometry>
        </mxCell>
        <mxCell id="NJKcCvW-NIQRYJZBvQvQ-175" value="" style="endArrow=classic;html=1;rounded=0;fillColor=#60a917;strokeColor=#2D7600;" parent="1" edge="1">
          <mxGeometry width="50" height="50" relative="1" as="geometry">
            <mxPoint x="310" y="895" as="sourcePoint" />
            <mxPoint x="450" y="910" as="targetPoint" />
          </mxGeometry>
        </mxCell>
        <mxCell id="NJKcCvW-NIQRYJZBvQvQ-176" value="" style="endArrow=classic;html=1;rounded=0;fillColor=#60a917;strokeColor=#2D7600;" parent="1" edge="1">
          <mxGeometry width="50" height="50" relative="1" as="geometry">
            <mxPoint x="320" y="880" as="sourcePoint" />
            <mxPoint x="450" y="830" as="targetPoint" />
          </mxGeometry>
        </mxCell>
        <mxCell id="NJKcCvW-NIQRYJZBvQvQ-177" value="" style="endArrow=classic;html=1;rounded=0;fillColor=#60a917;strokeColor=#2D7600;" parent="1" edge="1">
          <mxGeometry width="50" height="50" relative="1" as="geometry">
            <mxPoint x="320" y="860" as="sourcePoint" />
            <mxPoint x="450" y="790" as="targetPoint" />
          </mxGeometry>
        </mxCell>
        <mxCell id="NJKcCvW-NIQRYJZBvQvQ-178" value="" style="endArrow=classic;html=1;rounded=0;fillColor=#60a917;strokeColor=#2D7600;" parent="1" edge="1">
          <mxGeometry width="50" height="50" relative="1" as="geometry">
            <mxPoint x="310" y="850" as="sourcePoint" />
            <mxPoint x="450" y="750" as="targetPoint" />
          </mxGeometry>
        </mxCell>
        <mxCell id="NJKcCvW-NIQRYJZBvQvQ-179" value="" style="endArrow=classic;html=1;rounded=0;fillColor=#60a917;strokeColor=#2D7600;" parent="1" edge="1">
          <mxGeometry width="50" height="50" relative="1" as="geometry">
            <mxPoint x="300" y="840" as="sourcePoint" />
            <mxPoint x="450" y="650" as="targetPoint" />
          </mxGeometry>
        </mxCell>
        <mxCell id="NJKcCvW-NIQRYJZBvQvQ-180" value="" style="endArrow=classic;html=1;rounded=0;entryX=0;entryY=0.5;entryDx=0;entryDy=0;exitX=0.77;exitY=0.062;exitDx=0;exitDy=0;exitPerimeter=0;fillColor=#60a917;strokeColor=#2D7600;" parent="1" source="NJKcCvW-NIQRYJZBvQvQ-161" target="NJKcCvW-NIQRYJZBvQvQ-162" edge="1">
          <mxGeometry width="50" height="50" relative="1" as="geometry">
            <mxPoint x="280" y="830" as="sourcePoint" />
            <mxPoint x="330" y="780" as="targetPoint" />
          </mxGeometry>
        </mxCell>
        <mxCell id="NJKcCvW-NIQRYJZBvQvQ-183" value="" style="endArrow=classic;html=1;rounded=0;fillColor=#60a917;strokeColor=#2D7600;" parent="1" edge="1">
          <mxGeometry width="50" height="50" relative="1" as="geometry">
            <mxPoint x="310" y="890" as="sourcePoint" />
            <mxPoint x="450" y="870" as="targetPoint" />
          </mxGeometry>
        </mxCell>
        <mxCell id="NJKcCvW-NIQRYJZBvQvQ-184" value="resume status" style="rounded=1;whiteSpace=wrap;html=1;fillColor=#fff2cc;strokeColor=#d6b656;" parent="1" vertex="1">
          <mxGeometry x="455" y="900" width="70" height="30" as="geometry" />
        </mxCell>
        <mxCell id="NJKcCvW-NIQRYJZBvQvQ-185" value="view jobs" style="rounded=1;whiteSpace=wrap;html=1;fillColor=#fff2cc;strokeColor=#d6b656;" parent="1" vertex="1">
          <mxGeometry x="455" y="940" width="70" height="30" as="geometry" />
        </mxCell>
        <mxCell id="9O35xAzo4SKlVR1uPof4-3" value="" style="endArrow=classic;html=1;rounded=0;fillColor=#0050ef;strokeColor=#001DBC;" edge="1" parent="1">
          <mxGeometry width="50" height="50" relative="1" as="geometry">
            <mxPoint x="285" y="680" as="sourcePoint" />
            <mxPoint x="455" y="950" as="targetPoint" />
          </mxGeometry>
        </mxCell>
        <mxCell id="9O35xAzo4SKlVR1uPof4-4" value="search" style="rounded=1;whiteSpace=wrap;html=1;fillColor=#fff2cc;strokeColor=#d6b656;" vertex="1" parent="1">
          <mxGeometry x="455" y="980" width="70" height="30" as="geometry" />
        </mxCell>
        <mxCell id="9O35xAzo4SKlVR1uPof4-7" value="" style="endArrow=classic;html=1;rounded=0;fillColor=#0050ef;strokeColor=#001DBC;" edge="1" parent="1">
          <mxGeometry width="50" height="50" relative="1" as="geometry">
            <mxPoint x="260" y="680" as="sourcePoint" />
            <mxPoint x="450" y="990" as="targetPoint" />
          </mxGeometry>
        </mxCell>
        <mxCell id="9O35xAzo4SKlVR1uPof4-9" value="" style="endArrow=classic;html=1;rounded=0;fillColor=#60a917;strokeColor=#2D7600;" edge="1" parent="1">
          <mxGeometry width="50" height="50" relative="1" as="geometry">
            <mxPoint x="270" y="910" as="sourcePoint" />
            <mxPoint x="450" y="1000" as="targetPoint" />
          </mxGeometry>
        </mxCell>
      </root>
    </mxGraphModel>
  </diagram>
</mxfile>
